<svg width="50" height="44" viewBox="0 0 50 44" fill="none" xmlns="http://www.w3.org/2000/svg">
<path d="M3.125 18.8594H40.1875L28.8437 5.15776C28.3133 4.51599 28.0581 3.68861 28.1343 2.85763C28.2105 2.02665 28.6118 1.26014 29.25 0.726728C29.8882 0.193311 30.7109 -0.0633173 31.5373 0.0132978C32.3636 0.089913 33.1258 0.493496 33.6563 1.13526L49.2812 19.9907C49.3864 20.1407 49.4804 20.2982 49.5625 20.4621C49.5625 20.6192 49.5625 20.7135 49.7812 20.8706C49.9229 21.231 49.9971 21.6145 50 22.002C49.9971 22.3894 49.9229 22.773 49.7812 23.1333C49.7812 23.2904 49.7813 23.3847 49.5625 23.5418C49.4804 23.7057 49.3864 23.8632 49.2812 24.0132L33.6563 42.8687C33.3624 43.2234 32.9945 43.5087 32.5786 43.7042C32.1627 43.8998 31.7091 44.0007 31.25 44C30.5198 44.0014 29.8122 43.7457 29.25 43.2772C28.9336 43.0134 28.672 42.6894 28.4803 42.3238C28.2885 41.9581 28.1704 41.5581 28.1327 41.1464C28.095 40.7348 28.1383 40.3198 28.2604 39.9251C28.3824 39.5304 28.5806 39.1637 28.8437 38.8462L40.1875 25.1445H3.125C2.2962 25.1445 1.50134 24.8134 0.915289 24.2241C0.329238 23.6348 0 22.8354 0 22.002C0 21.1685 0.329238 20.3692 0.915289 19.7798C1.50134 19.1905 2.2962 18.8594 3.125 18.8594Z" fill="#C6DFF0"/>
</svg>
